# Blender v2.76 (sub 0) OBJ File: 'ireland.blend'
# www.blender.org
mtllib ireland.mtl
o ie
v -3.052479 0.154744 -0.685696
v -2.768567 0.154744 -0.660446
v -2.958996 0.154744 -0.688959
v -2.913619 0.054744 -0.759556
v -2.984051 0.054744 -0.738870
v -2.957079 0.054744 -0.775883
v -2.789730 0.054744 -0.719063
v -2.982752 0.054744 -0.717690
v -2.984492 0.054744 -0.721175
v -2.789487 0.054746 -0.710455
v -2.979902 0.054744 -0.713721
v -2.956743 0.154744 -0.776296
v -2.917981 0.154744 -0.763076
v -2.922801 0.154744 -0.783446
v -2.985240 0.154745 -0.736847
v -2.888537 0.154744 -0.750868
v -2.798272 0.154743 -0.745842
v -2.978160 0.154745 -0.712562
v -3.114135 0.154744 -0.695477
v -3.082481 0.154744 -0.694548
v -3.090458 0.154744 -0.706094
v -2.786758 0.154744 -0.701543
v -3.129858 0.154744 -0.673788
v -2.924289 0.054744 -0.784148
v -2.883569 0.054744 -0.751412
v -2.799097 0.054744 -0.743435
v -2.790115 0.054741 -0.725247
v -2.958250 0.054744 -0.691100
v -2.778263 0.054744 -0.693400
v -3.082181 0.054744 -0.694359
v -3.118065 0.054744 -0.693038
v -3.090174 0.054744 -0.706038
v -3.062826 0.054744 -0.691020
v -3.128914 0.054744 -0.671693
v -3.047144 0.054744 -0.681180
v -2.772120 0.054744 -0.645475
v -3.108865 0.054746 -0.649404
v -2.835736 0.054745 -0.598358
v -3.108662 0.154744 -0.649821
v -2.804824 0.154744 -0.614550
v -3.198120 0.154744 -0.373117
v -2.939923 0.154745 -0.354067
v -2.926879 0.154744 -0.357993
v -3.223371 0.154744 -0.410836
v -3.199517 0.154744 -0.345343
v -3.198176 0.054744 -0.373291
v -2.970159 0.054744 -0.350707
v -2.988479 0.054744 -0.349495
v -3.035383 0.154744 -0.343727
v -3.027527 0.154743 -0.345110
v -3.193281 0.054744 -0.437709
v -3.225508 0.054744 -0.415774
v -3.213490 0.054744 -0.431736
v -3.197401 0.054744 -0.347132
v -3.206495 0.054744 -0.351480
v -2.954063 0.054744 -0.352021
v -2.936384 0.054744 -0.354696
v -3.024282 0.054744 -0.345593
v -3.014816 0.054744 -0.346896
v -3.030113 0.054744 -0.344672
v -3.046676 0.054744 -0.341034
v -3.037948 0.054742 -0.343232
v -3.057633 0.054744 -0.336078
v -3.067229 0.054744 -0.332518
v -3.157833 0.054744 -0.320401
v -2.911743 0.154743 -0.368636
v -2.917813 0.154744 -0.363765
v -2.959957 0.154744 -0.351492
v -2.951264 0.154744 -0.352361
v -2.970159 0.154744 -0.350707
v -2.988556 0.154745 -0.349490
v -3.007828 0.154744 -0.347741
v -2.996989 0.154744 -0.348790
v -3.017973 0.154744 -0.346477
v -3.159464 0.154781 -0.321086
v -3.047014 0.154744 -0.340867
v -3.043915 0.154744 -0.341812
v -3.097137 0.154743 -0.324374
v -3.065942 0.154744 -0.332727
v -3.146412 0.154739 -0.600849
v -3.144579 0.054739 -0.596420
v -3.103273 0.054744 -0.546283
v -2.872857 0.054744 -0.421110
v -2.926945 0.054744 -0.358259
v -2.917248 0.054744 -0.363711
v -2.996989 0.054744 -0.348790
v -3.004245 0.054744 -0.348088
v -3.087442 0.054743 -0.326346
v -2.877062 0.154751 -0.411971
v -3.216761 0.154744 -0.430624
v -2.883161 0.154744 -0.400997
v -2.902684 0.154744 -0.376999
v -2.889089 0.154744 -0.392281
v -3.040010 0.154744 -0.342770
v -2.877763 0.054744 -0.410570
v -2.883161 0.054744 -0.400997
v -2.892131 0.054744 -0.388199
v -2.902684 0.054744 -0.376999
v -2.895585 0.154744 -0.384318
v -3.105433 0.154744 -0.549543
v -2.836003 0.154745 -0.599656
v -3.193797 0.154744 -0.437481
v -2.937478 0.054744 -0.354668
v -2.926945 0.154744 -0.358259
v -3.057633 0.154744 -0.336078
v -3.104524 0.054744 -0.542988
v -2.916092 0.054744 -0.365016
v -2.266479 0.156811 -0.343954
v -2.265869 0.156811 -0.342726
vt 0.125000 0.112500
vt 0.875320 0.350000
vt 0.522222 0.200000
vt 0.000000 0.000000
vn 0.000000 1.000000 0.000000
vn -0.000000 -1.000000 0.000000
vn 0.000000 -1.000000 0.000200
vn -0.000000 -1.000000 -0.000200
vn -0.000000 -1.000000 -0.000100
vn -0.000000 -1.000000 0.000100
vn -0.000000 -1.000000 0.000500
vn 0.000000 1.000000 -0.000200
vn 0.000100 1.000000 -0.000400
vn -0.000100 -1.000000 0.000500
vn 0.000100 1.000000 -0.000800
vn 0.000800 1.000000 0.002500
vn 0.000800 1.000000 0.003000
vn -0.828600 -0.039900 -0.558500
vn -0.000000 -1.000000 -0.000300
vn -0.000000 1.000000 0.000100
vn -0.000100 1.000000 0.000600
vn 0.001200 1.000000 0.004800
vn 0.000600 1.000000 0.001300
vn -0.792000 -0.000900 -0.610500
vn 0.000100 -1.000000 -0.000700
vn -0.000100 1.000000 0.000400
vn -0.000000 1.000000 0.000400
vn -0.000200 1.000000 -0.000100
vn -0.000000 1.000000 -0.000100
vn 0.002500 0.999900 0.012200
vn 0.215200 -0.000900 -0.976600
vn 0.166700 0.004000 -0.986000
vn 0.651900 0.020500 -0.758000
vn 0.634700 -0.003500 -0.772800
vn 0.568800 -0.024500 -0.822100
vn 0.541900 -0.002200 -0.840500
vn 0.762200 -0.012300 -0.647200
vn 0.449400 0.013400 -0.893200
vn 0.266500 -0.002200 -0.963800
vn 0.265000 -0.000200 -0.964200
vn -0.691400 -0.007800 -0.722500
vn 0.587100 0.000500 -0.809500
vn 0.548900 0.015900 -0.835800
vn -0.877300 0.010100 0.479800
vn -0.792200 0.006700 0.610300
vn -0.941600 0.022700 -0.336000
vn -0.963800 0.002000 0.266600
vn -0.983300 0.018800 -0.180800
vn -0.945700 -0.005400 -0.325100
vn -0.547000 0.004800 -0.837100
vn -0.560600 -0.001500 -0.828100
vn 0.974800 0.034100 -0.220400
vn 0.938900 0.020700 -0.343700
vn 0.946500 0.041300 -0.320200
vn 0.928900 -0.003200 -0.370200
vn 0.992000 0.044800 0.118100
vn 0.918400 -0.037400 0.393800
vn -0.911600 -0.037800 -0.409300
vn 0.562500 0.696700 0.445200
vn 0.832000 -0.018500 0.554500
vn 0.605500 0.146700 0.782200
vn -0.998600 0.012100 0.051600
vn -0.624900 0.005500 -0.780700
vn 0.140500 -0.021800 -0.989800
vn 0.344200 0.014400 -0.938800
vn -0.990400 -0.007800 0.137800
vn 0.228400 -0.011400 -0.973500
vn -0.743500 0.004300 0.668800
vn -0.748000 0.006300 0.663600
vn 0.241700 -0.001000 0.970400
vn 0.415100 0.000800 0.909800
vn 0.218500 0.001800 0.975800
vn 0.254500 0.004500 0.967100
vn 0.223900 0.000100 0.974600
vn 0.337400 0.001000 0.941300
vn 0.721400 -0.003900 0.692600
vn 0.802500 0.001500 0.596700
vn 0.704600 0.000800 0.709600
vn 0.105900 0.000500 0.994400
vn 0.080000 -0.000100 0.996800
vn 0.111300 -0.000300 0.993800
vn 0.163200 0.102200 0.981300
vn 0.558200 -0.003000 0.829700
vn 0.325200 0.019400 0.945500
vn -0.768100 -0.000900 0.640300
vn 0.926000 0.012300 0.377400
vn 0.838300 -0.005800 0.545200
vn 0.350900 0.003500 0.936400
vn 0.162300 -0.003700 0.986700
vn 0.227900 -0.007700 0.973700
vn -0.678400 0.264400 0.685400
vn 0.289600 -0.001800 0.957100
vn -0.864000 -0.031300 -0.502600
vn -0.548100 -0.000600 -0.836400
vn -0.552800 -0.010400 -0.833200
vn 0.944500 0.006900 0.328600
vn 0.328600 0.004000 0.944500
vn -0.999500 -0.023300 0.022500
vn 0.098000 0.001000 0.995200
vn 0.115200 -0.001300 0.993300
vn 0.428000 -0.000700 0.903800
vn 0.589200 0.000900 0.808000
vn 0.147000 0.000800 0.989100
vn 0.158300 -0.000600 0.987400
vn 0.600100 -0.000600 0.799900
vn -0.400500 -0.000300 0.916300
vn -0.988400 -0.016400 0.151200
vn 0.080700 -0.000400 0.996700
vn -0.999300 0.034900 0.012000
vn -0.985400 -0.003500 -0.170000
vn -0.775300 0.007500 0.631500
vn -0.781300 0.013300 0.624000
vn -0.687500 0.017000 -0.726000
vn -0.564400 -0.009300 -0.825400
usemtl IrishMaterial.002
s off
f 1/1/1 2/1/1 3/1/1
f 4/1/2 5/1/2 6/1/2
f 7/1/2 8/1/2 9/1/2
f 10/1/3 8/1/3 7/1/3
f 10/1/2 11/1/2 8/1/2
f 12/1/1 13/1/1 14/1/1
f 15/1/1 13/1/1 12/1/1
f 15/1/1 16/1/1 13/1/1
f 15/1/1 17/1/1 16/1/1
f 17/1/1 15/1/1 18/1/1
f 19/1/1 20/1/1 21/1/1
f 3/1/1 22/1/1 18/1/1
f 3/1/1 2/1/1 22/1/1
f 19/1/1 1/1/1 20/1/1
f 23/1/1 2/1/1 1/1/1
f 4/1/2 6/1/2 24/1/2
f 25/1/2 5/1/2 4/1/2
f 26/1/2 5/1/2 25/1/2
f 27/1/4 5/1/4 26/1/4
f 10/1/2 28/1/2 11/1/2
f 29/1/5 28/1/5 10/1/5
f 30/1/2 31/1/2 32/1/2
f 33/1/2 31/1/2 30/1/2
f 34/1/2 31/1/2 33/1/2
f 29/1/2 35/1/2 28/1/2
f 29/1/2 34/1/2 35/1/2
f 36/1/2 34/1/2 29/1/2
f 36/1/6 37/1/6 34/1/6
f 27/1/7 7/1/7 9/1/7
f 22/1/1 17/1/1 18/1/1
f 37/1/2 36/1/2 38/1/2
f 39/1/1 40/1/1 2/1/1
f 9/1/2 5/1/2 27/1/2
f 1/1/1 19/1/1 23/1/1
f 35/1/2 34/1/2 33/1/2
f 2/1/1 23/1/1 39/1/1
f 41/2/8 42/2/8 43/2/8
f 44/2/1 45/2/1 41/2/1
f 46/2/2 47/2/2 48/2/2
f 41/2/9 49/2/9 50/2/9
f 51/2/2 52/2/2 53/2/2
f 54/2/2 55/2/2 46/2/2
f 56/2/2 46/2/2 57/2/2
f 47/2/2 46/2/2 56/2/2
f 58/2/2 46/2/2 59/2/2
f 60/2/2 46/2/2 58/2/2
f 61/2/10 46/2/10 62/2/10
f 63/2/2 46/2/2 61/2/2
f 64/2/2 65/2/2 46/2/2
f 41/2/1 66/2/1 44/2/1
f 41/2/8 67/2/8 66/2/8
f 41/2/1 68/2/1 69/2/1
f 41/2/1 70/2/1 68/2/1
f 41/2/1 71/2/1 70/2/1
f 41/2/1 72/2/1 73/2/1
f 41/2/1 74/2/1 72/2/1
f 75/2/11 49/2/11 41/2/11
f 75/2/12 76/2/12 77/2/12
f 75/2/13 78/2/13 79/2/13
f 80/3/14 37/3/14 81/3/14
f 82/3/2 38/3/2 83/3/2
f 84/2/2 46/2/2 85/2/2
f 57/2/2 46/2/2 84/2/2
f 46/2/2 86/2/2 87/2/2
f 86/2/2 46/2/2 48/2/2
f 64/2/2 46/2/2 63/2/2
f 88/2/15 65/2/15 64/2/15
f 51/3/2 82/3/2 83/3/2
f 80/3/16 40/3/16 39/3/16
f 89/2/17 90/2/17 91/2/17
f 91/2/1 90/2/1 44/2/1
f 71/2/17 41/2/17 73/2/17
f 92/2/1 93/2/1 91/2/1
f 75/2/18 77/2/18 94/2/18
f 81/3/6 38/3/6 82/3/6
f 95/2/2 96/2/2 83/2/2
f 51/2/2 83/2/2 96/2/2
f 51/2/2 96/2/2 52/2/2
f 79/2/19 76/2/19 75/2/19
f 80/3/20 39/3/20 37/3/20
f 59/2/2 46/2/2 87/2/2
f 46/2/21 60/2/21 62/2/21
f 96/2/2 97/2/2 98/2/2
f 46/2/2 55/2/2 52/2/2
f 85/2/2 46/2/2 52/2/2
f 98/2/2 85/2/2 96/2/2
f 52/2/2 96/2/2 85/2/2
f 67/2/1 41/2/1 43/2/1
f 74/2/22 41/2/22 50/2/22
f 41/2/23 69/2/23 42/2/23
f 91/2/1 44/2/1 66/2/1
f 66/2/24 92/2/24 91/2/24
f 99/2/1 93/2/1 92/2/1
f 80/3/25 100/3/25 101/3/25
f 49/2/26 75/2/26 94/2/26
f 101/3/1 100/3/1 89/3/1
f 100/3/1 102/3/1 89/3/1
f 90/2/25 89/2/25 102/2/25
s 1
f 16/1/27 25/1/28 4/1/29
f 17/1/30 26/1/31 25/1/28
f 14/1/32 13/1/33 24/1/34
f 13/1/33 16/1/27 4/1/29
f 21/1/35 32/1/36 31/1/37
f 20/1/38 30/1/39 32/1/36
f 18/1/40 11/1/41 28/1/42
f 9/1/43 11/1/41 18/1/40
f 15/1/44 5/1/45 9/1/43
f 12/1/46 6/1/47 5/1/45
f 12/1/46 24/1/34 6/1/47
f 13/1/33 4/1/29 24/1/34
f 17/1/30 27/1/48 26/1/31
f 17/1/30 22/1/49 10/1/50
f 22/1/49 29/1/51 10/1/50
f 2/1/52 36/1/53 29/1/51
f 21/1/35 20/1/38 32/1/36
f 3/1/54 18/1/40 28/1/42
f 15/1/44 12/1/46 5/1/45
f 12/1/46 14/1/32 24/1/34
f 16/1/27 17/1/30 25/1/28
f 22/1/49 2/1/52 29/1/51
f 15/1/44 9/1/43 18/1/40
f 27/1/48 17/1/30 10/1/50
f 101/3/55 38/3/56 40/3/57
f 38/1/56 36/1/53 40/1/57
f 31/1/37 23/1/58 19/1/59
f 20/1/38 1/1/60 30/1/39
f 1/1/60 33/1/61 30/1/39
f 34/1/62 23/1/58 31/1/37
f 21/1/35 31/1/37 19/1/59
f 28/1/42 35/1/63 3/1/54
f 3/1/54 35/1/63 1/1/60
f 1/1/60 35/1/63 33/1/61
f 34/1/62 37/1/64 39/1/65
f 39/1/65 23/1/58 34/1/62
f 36/1/53 2/1/52 40/1/57
f 103/2/66 104/2/67 42/2/68
f 62/2/69 94/2/70 76/2/71
f 98/2/72 93/2/73 92/2/74
f 87/2/75 71/2/76 72/2/77
f 45/2/78 54/2/79 46/2/80
f 45/2/78 55/2/81 54/2/79
f 89/2/82 93/2/73 96/2/83
f 105/2/84 78/2/85 88/2/86
f 75/2/87 41/2/88 46/2/80
f 41/2/88 45/2/78 46/2/80
f 106/3/89 51/3/90 102/3/91
f 83/2/92 89/2/82 96/2/83
f 63/2/93 105/2/84 88/2/86
f 100/3/94 106/3/89 102/3/91
f 101/3/55 40/3/57 80/3/25
f 76/2/71 105/2/84 63/2/93
f 68/2/95 56/2/96 42/2/68
f 103/2/66 84/2/97 104/2/67
f 42/2/68 56/2/96 103/2/66
f 84/2/97 67/2/98 104/2/67
f 62/2/69 58/2/99 50/2/100
f 76/2/71 63/2/93 62/2/69
f 50/2/100 94/2/70 62/2/69
f 58/2/99 72/2/77 50/2/100
f 92/2/74 67/2/98 107/2/101
f 98/2/72 96/2/83 93/2/73
f 67/2/98 84/2/97 107/2/101
f 107/2/101 98/2/72 92/2/74
f 88/2/86 78/2/85 75/2/87
f 75/2/87 65/2/102 88/2/86
f 100/3/94 82/3/103 106/3/89
f 48/2/104 56/2/96 68/2/95
f 72/2/77 58/2/99 87/2/75
f 87/2/75 48/2/104 71/2/76
f 68/2/95 71/2/76 48/2/104
f 45/2/78 44/2/105 55/2/81
f 52/2/106 55/2/81 44/2/105
f 81/3/107 82/3/103 100/3/94
f 100/3/94 80/3/108 81/3/107
f 90/2/109 52/2/106 44/2/105
f 52/2/106 90/2/109 53/2/110
f 75/2/87 46/2/80 65/2/102
f 101/3/55 89/3/82 83/3/92
f 38/3/56 101/3/55 83/3/92
usemtl IrishMaterial.002_ie_flag.jpg
s off
f 38/4/5 81/4/5 37/4/5
s 1
f 90/4/109 102/4/91 51/4/90
f 51/4/90 53/4/110 90/4/109
l 79 105
l 43 104
l 108 109
l 57 103
l 85 107
