# Blender v2.76 (sub 0) OBJ File: 'uk.blend'
# www.blender.org
mtllib uk.mtl
o uk.000
v -2.705523 0.052067 -0.952321
v -2.406860 0.052067 -0.991023
v -2.692291 0.052067 -1.019939
v -2.704633 0.052067 -0.674127
v -2.462080 0.052067 -0.776441
v -2.657515 0.052067 -0.796237
v -2.357159 -0.047933 -0.513545
v -2.593090 -0.047933 -0.637431
v -2.461697 -0.047933 -0.775986
v -2.691787 0.050000 -1.154322
v -2.682309 0.050000 -1.153361
v -2.688627 0.050000 -1.154662
v -2.695388 0.050000 -1.153393
v -2.699409 0.050000 -1.151865
v -2.703842 0.050000 -1.149732
v -2.679887 0.050000 -1.147786
v -2.708090 0.050000 -1.147376
v -2.679654 0.050000 -1.144752
v -2.711881 0.050000 -1.145016
v -2.715234 0.050000 -1.142627
v -2.679959 0.050000 -1.141182
v -2.718165 0.050000 -1.140187
v -2.680817 0.050000 -1.137087
v -2.720690 0.050000 -1.137671
v -2.722828 0.050000 -1.135056
v -2.683164 0.050000 -1.130864
v -2.724595 0.050000 -1.132319
v -2.726009 0.050000 -1.129436
v -2.684908 0.050000 -1.125892
v -2.727086 0.050000 -1.126384
v -2.727844 0.050000 -1.123140
v -2.728300 0.050000 -1.119679
v -2.696189 0.050000 -1.115200
v -2.725441 0.050000 -1.105759
v -2.701648 0.050000 -1.111368
v -2.707227 0.050000 -1.108426
v -2.457139 0.052067 -1.134925
v -2.595967 0.052067 -1.164689
v -2.566693 0.052067 -1.032629
v -2.733874 0.052067 -1.042655
v -2.596130 0.052067 -0.648361
v -2.358529 0.052067 -0.515479
v -2.682230 -0.050000 -1.153356
v -2.691787 -0.050000 -1.154322
v -2.688627 -0.050000 -1.154662
v -2.695388 -0.050000 -1.153393
v -2.699409 -0.050000 -1.151865
v -2.680644 -0.050000 -1.150278
v -2.703842 -0.050000 -1.149732
v -2.679887 -0.050000 -1.147786
v -2.708090 -0.050000 -1.147376
v -2.679654 -0.050000 -1.144752
v -2.711881 -0.050000 -1.145016
v -2.715234 -0.050000 -1.142627
v -2.679959 -0.050000 -1.141182
v -2.718165 -0.050000 -1.140187
v -2.701648 -0.050000 -1.111368
v -2.723629 -0.050000 -1.105172
v -2.696189 -0.050000 -1.115200
v -2.707227 -0.050000 -1.108426
v -2.459608 -0.047933 -1.135528
v -2.703254 -0.047933 -0.978638
v -2.595329 -0.047933 -1.165036
v -2.563776 -0.047933 -1.030226
v -2.661350 -0.047933 -0.801773
v -2.539853 -0.047933 -0.801588
v -2.704744 -0.047933 -0.674593
v -2.640671 -0.047933 -0.659954
v -2.727844 -0.050000 -1.123140
v -2.727086 -0.050000 -1.126384
v -2.720690 -0.050000 -1.137671
v -2.680817 -0.050000 -1.137087
v -2.683164 -0.050000 -1.130864
v -2.686683 -0.050000 -1.125064
v -2.691113 -0.050000 -1.119804
v -2.728470 -0.050000 -1.115979
v -2.728300 -0.050000 -1.119679
v -2.726009 -0.050000 -1.129436
v -2.724595 -0.050000 -1.132319
v -2.722828 -0.050000 -1.135056
v -2.710222 -0.047933 -1.035727
v -2.407129 -0.047933 -0.990862
v -2.688570 0.052067 -0.365779
v -2.216583 0.052067 -0.297236
v -2.333575 0.052067 -0.346776
v -2.741654 0.052067 -0.154254
v -2.324914 0.052067 -0.134742
v -2.615506 0.052067 -0.173177
v -2.785364 0.052067 -0.118046
v -2.774994 0.052067 -0.127549
v -2.796750 0.052067 -0.107251
v -2.267405 0.052067 -0.088272
v -2.510674 -0.047933 -0.833970
v -2.675757 -0.047933 -0.921695
v -2.711704 -0.047933 -0.942245
v -2.216084 -0.047933 -0.296170
v -2.795498 -0.047933 -0.277104
v -2.686664 -0.047933 -0.352686
v -2.637192 -0.047933 -0.072720
v -2.833698 -0.047933 -0.070515
v -2.828813 -0.047933 -0.075572
v -2.675084 0.052067 -0.920848
v -2.519512 0.052067 -0.820258
v -2.680479 0.052067 -0.907395
v -2.704974 0.052067 -0.885485
v -2.562438 0.052067 -0.528890
v -2.596950 0.052067 -0.431835
v -2.356320 0.052067 -0.443288
v -2.695695 0.052067 -0.432537
v -2.792493 0.052067 -0.280343
v -2.714230 0.052067 -0.220405
v -2.699229 0.052067 -0.167822
v -2.734847 0.052067 -0.158509
v -2.748970 0.052067 -0.149111
v -2.756898 0.052067 -0.143000
v -2.765539 0.052067 -0.135840
v -2.809253 0.052067 -0.095082
v -2.822975 0.052067 -0.081459
v -2.828813 0.052067 -0.075572
v -2.568730 0.052067 -0.065929
v -2.834829 0.052067 -0.039324
v -2.833698 0.052067 -0.070515
v -2.722707 -0.047933 -0.942038
v -2.696552 -0.047933 -0.894231
v -2.594182 -0.047933 -0.439112
v -2.356178 -0.047933 -0.444015
v -2.706292 -0.047933 -0.427960
v -2.328822 -0.047933 -0.349000
v -2.714197 -0.047933 -0.221671
v -2.324852 -0.047933 -0.134953
v -2.614241 -0.047933 -0.175447
v -2.741654 -0.047933 -0.154254
v -2.699404 -0.047933 -0.167749
v -2.748970 -0.047933 -0.149111
v -2.756898 -0.047933 -0.143000
v -2.765539 -0.047933 -0.135840
v -2.774994 -0.047933 -0.127549
v -2.785364 -0.047933 -0.118046
v -2.268534 -0.047933 -0.091367
v -2.796750 -0.047933 -0.107251
v -2.809253 -0.047933 -0.095082
v -2.822975 -0.047933 -0.081459
v -2.524400 -0.047933 -0.073565
v -2.837673 -0.047933 -0.066197
v -2.839383 -0.047933 -0.043666
vt 0.062500 0.275000
vt 0.651562 0.356250
vt 0.682422 0.060938
vt 0.656250 0.350000
vt 0.503125 0.487500
vn 0.000000 1.000000 0.000000
vn 0.000000 -1.000000 0.000000
vn -0.507600 -0.000800 0.861600
vn -0.493500 -0.011200 0.869700
vn -0.987200 0.004000 -0.159200
vn 0.950000 -0.036600 0.310200
vn 0.049000 -0.052800 0.997400
vn 0.961200 -0.019400 0.275000
vn -0.979400 -0.031900 -0.199200
vn -0.186900 -0.001900 -0.982400
vn -0.999100 -0.029000 0.031000
vn -0.941800 0.004700 -0.336200
vn -0.920900 -0.067800 -0.383900
vn -0.816100 0.049300 -0.575800
vn -0.578300 0.008900 -0.815800
vn -0.690800 0.141900 -0.709000
vn -0.987800 0.153000 -0.028000
vn -0.812900 0.126700 0.568400
vn -0.972200 -0.068300 0.224000
vn -0.942100 -0.002200 0.335300
vn -0.998100 -0.000100 0.062300
vn -0.989300 -0.026900 0.143100
vn -0.984400 0.172600 0.033600
vn -0.926100 -0.153800 -0.344600
vn -0.181600 -0.118800 -0.976200
vn -0.031200 -0.829900 -0.557000
vn 0.932500 -0.007400 -0.361100
vn 0.795700 -0.012700 0.605600
vn 0.932200 -0.003100 -0.361900
vn 0.981700 -0.176100 -0.071900
vn 0.959600 -0.116100 -0.256300
vn 0.748400 -0.082300 -0.658100
vn 0.686200 -0.000200 -0.727400
vn 0.990000 0.018300 -0.140000
vn 0.989300 0.002500 -0.146100
vn 0.980600 0.005900 -0.196100
vn 0.758700 0.025800 -0.650900
vn 0.959200 0.017500 -0.282100
vn 0.964900 -0.000500 -0.262700
vn 0.988700 0.003100 -0.149900
vn 0.988100 0.007200 -0.153600
vn 0.060200 -0.081400 0.994900
vn 0.076900 -0.102900 0.991700
vn -0.652300 -0.029100 0.757400
vn -0.705500 0.001400 0.708700
vn -0.132600 -0.023800 -0.990900
vn 0.219600 -0.197600 -0.955400
vn 0.694300 -0.081900 0.715000
vn -0.985500 0.049200 0.162100
vn -0.983400 0.071500 0.167100
vn 0.550400 -0.214700 0.806800
vn -0.624400 0.000000 -0.781100
vn -0.648700 0.000000 -0.761000
vn -0.159000 -0.000400 -0.987300
vn -0.999500 0.030100 0.001000
vn -0.705300 0.042400 -0.707600
vn -0.693300 0.011700 0.720500
vn -0.998100 0.023000 0.057100
vn 0.978600 0.009000 -0.205600
vn 0.765800 0.050700 -0.641100
vn -0.727500 0.000000 -0.686100
vn -0.714700 0.000000 -0.699500
vn -0.922800 0.025600 -0.384300
vn -0.395700 -0.002800 -0.918400
vn -0.915200 0.019700 -0.402500
vn -0.552800 0.000000 -0.833300
vn -0.450400 -0.009500 -0.892800
vn -0.592900 0.000000 -0.805200
vn -0.707300 0.000000 -0.706900
vn -0.701000 0.000000 -0.713100
vn -0.667500 0.000000 -0.744600
vn -0.692800 0.000000 -0.721200
vn -0.681800 0.000000 -0.731500
vn -0.573800 0.010800 0.818900
vn -0.983300 -0.006300 0.182100
vn -0.455000 -0.008300 0.890500
vn 1.000000 0.000000 0.004300
vn 0.989400 0.000000 0.145400
vn 0.839600 0.000300 0.543300
vn 0.811800 -0.009600 0.583800
vn 0.900600 -0.005300 0.434500
vn -0.673500 0.000000 -0.739200
vn -0.741000 0.000000 -0.671500
vn 0.521500 0.000000 0.853200
vn 0.334000 0.000000 0.942600
vn 0.521600 0.000000 0.853200
vn -0.301400 0.026800 0.953100
vn -0.883000 -0.003900 0.469300
vn -0.879900 0.015000 0.475000
vn -0.664100 -0.119000 -0.738100
vn -0.399800 -0.022200 -0.916400
vn -0.402400 -0.000400 -0.915500
vn 0.965600 -0.020600 -0.259200
vn 0.960200 0.001500 -0.279300
vn 0.970400 -0.000300 -0.241300
vn 0.958800 0.026100 -0.282900
vn -0.996100 0.000000 -0.088400
vn -0.983800 0.000000 -0.179300
vn -0.303000 0.000000 -0.953000
vn -0.178900 0.000000 -0.983900
vn 0.960100 0.000000 0.279800
vn 0.982800 0.000000 -0.184700
vn 0.603900 0.000400 -0.797100
vn 0.629600 0.001700 -0.776900
vn 0.926600 0.000400 -0.376100
vn 0.939700 0.000000 0.342000
vn 0.970800 0.001500 -0.239900
vn -0.808400 0.000000 -0.588600
vn -0.610500 0.000000 -0.792000
vn -0.554600 0.000000 -0.832100
vn -0.554700 0.000000 -0.832100
vn -0.506900 0.000000 -0.862000
vn 0.624400 0.000000 0.781100
vn 0.632600 0.000700 0.774500
vn 0.718200 -0.003800 0.695900
vn 0.312600 0.003800 0.949900
vn -0.870500 0.000000 -0.492200
vn -0.922000 0.000000 -0.387200
vn -0.959800 0.000000 -0.280600
vn -0.999400 0.004500 0.032900
vn 0.047100 0.000100 -0.998900
vn -0.394800 0.000000 -0.918800
vn -0.459500 0.000000 -0.888200
vn 0.047900 0.000000 -0.998900
usemtl UkMaterial_en_flag.png.001
s off
f 83/1/1 84/1/1 85/1/1
f 86/1/1 87/1/1 88/1/1
f 89/1/1 87/1/1 90/1/1
f 91/1/1 92/1/1 89/1/1
f 93/2/2 94/2/2 95/2/2
f 96/1/2 97/1/2 98/1/2
f 99/1/2 100/1/2 101/1/2
f 102/3/1 2/3/1 1/3/1
f 102/3/1 103/3/1 2/3/1
f 104/2/1 103/2/1 102/2/1
f 105/2/1 104/2/1 1/2/1
f 105/2/1 103/2/1 104/2/1
f 6/2/1 103/2/1 105/2/1
f 6/2/1 5/2/1 103/2/1
f 106/4/1 42/4/1 41/4/1
f 107/4/1 42/4/1 106/4/1
f 107/4/1 108/4/1 42/4/1
f 83/1/1 107/1/1 109/1/1
f 83/1/1 108/1/1 107/1/1
f 83/1/1 85/1/1 108/1/1
f 110/1/1 84/1/1 83/1/1
f 111/1/1 84/1/1 110/1/1
f 111/1/1 87/1/1 84/1/1
f 88/1/1 87/1/1 111/1/1
f 86/1/1 112/1/1 113/1/1
f 86/1/1 88/1/1 112/1/1
f 114/1/1 87/1/1 86/1/1
f 115/1/1 87/1/1 114/1/1
f 116/1/1 87/1/1 115/1/1
f 90/1/1 87/1/1 116/1/1
f 89/1/1 92/1/1 87/1/1
f 117/1/1 92/1/1 91/1/1
f 118/1/1 92/1/1 117/1/1
f 119/1/1 92/1/1 118/1/1
f 119/1/1 120/1/1 92/1/1
f 119/1/1 121/1/1 120/1/1
f 122/1/1 121/1/1 119/1/1
f 82/3/2 62/3/2 64/3/2
f 82/2/2 123/2/2 62/2/2
f 82/2/2 95/2/2 123/2/2
f 93/2/2 95/2/2 82/2/2
f 124/2/2 123/2/2 95/2/2
f 93/2/2 124/2/2 94/2/2
f 93/2/2 65/2/2 124/2/2
f 66/2/2 65/2/2 93/2/2
f 7/4/2 125/4/2 8/4/2
f 126/4/2 125/4/2 7/4/2
f 126/1/2 127/1/2 125/1/2
f 128/1/2 127/1/2 126/1/2
f 128/1/2 98/1/2 127/1/2
f 96/1/2 98/1/2 128/1/2
f 96/1/2 129/1/2 97/1/2
f 130/1/2 129/1/2 96/1/2
f 130/1/2 131/1/2 129/1/2
f 131/1/2 132/1/2 133/1/2
f 130/1/2 132/1/2 131/1/2
f 130/1/2 134/1/2 132/1/2
f 130/1/2 135/1/2 134/1/2
f 130/1/2 136/1/2 135/1/2
f 130/1/2 137/1/2 136/1/2
f 130/1/2 138/1/2 137/1/2
f 139/1/2 138/1/2 130/1/2
f 139/1/2 140/1/2 138/1/2
f 139/1/2 141/1/2 140/1/2
f 139/1/2 142/1/2 141/1/2
f 139/1/2 101/1/2 142/1/2
f 99/1/2 101/1/2 139/1/2
f 143/1/2 99/1/2 139/1/2
f 99/1/2 144/1/2 100/1/2
f 99/1/2 145/1/2 144/1/2
s 1
f 111/1/3 129/1/4 131/1/5
f 92/1/6 143/1/7 139/1/8
f 88/1/9 131/1/5 133/1/10
f 111/1/3 97/1/11 129/1/4
f 83/1/12 98/1/13 97/1/11
f 83/1/12 127/1/14 98/1/13
f 107/1/15 125/1/16 127/1/14
f 106/4/17 8/4/18 125/4/16
f 105/2/19 124/2/20 65/2/21
f 1/2/22 123/2/23 124/2/20
f 1/3/22 62/3/24 123/3/23
f 3/3/25 62/3/24 81/3/26
f 2/2/27 93/2/28 82/2/29
f 103/2/30 66/2/31 93/2/28
f 5/2/32 9/2/33 66/2/31
f 108/4/34 126/4/35 7/4/36
f 108/1/34 128/1/37 126/1/35
f 84/1/38 96/1/39 128/1/37
f 87/1/40 130/1/41 96/1/39
f 92/1/6 139/1/8 130/1/41
f 120/1/42 99/1/43 143/1/7
f 121/1/44 145/1/45 99/1/43
f 104/2/46 124/2/47 95/2/48
f 102/2/49 94/2/50 124/2/47
f 1/2/51 95/2/48 94/2/50
f 135/1/52 136/1/53 116/1/53
f 112/1/54 88/1/9 133/1/10
f 88/1/9 111/1/3 131/1/5
f 111/1/3 110/1/55 97/1/11
f 110/1/55 83/1/12 97/1/11
f 83/1/12 109/1/56 127/1/14
f 109/1/56 107/1/15 127/1/14
f 107/4/15 106/4/17 125/4/16
f 106/4/17 41/4/57 8/4/18
f 6/2/58 105/2/19 65/2/21
f 105/2/19 1/2/22 124/2/20
f 2/2/27 103/2/30 93/2/28
f 103/2/30 5/2/32 66/2/31
f 42/4/59 108/4/34 7/4/36
f 108/1/34 85/1/60 128/1/37
f 85/1/60 84/1/38 128/1/37
f 84/1/38 87/1/40 96/1/39
f 87/1/40 92/1/6 130/1/41
f 92/1/6 120/1/42 143/1/7
f 120/1/42 121/1/44 99/1/43
f 104/2/46 102/2/49 124/2/47
f 102/2/49 1/2/51 94/2/50
f 1/2/51 104/2/46 95/2/48
f 100/1/61 119/1/62 101/1/62
f 145/1/45 121/1/44 144/1/63
f 113/1/64 112/1/54 133/1/10
f 121/1/44 122/1/65 144/1/63
f 86/1/66 113/1/64 132/1/67
f 122/1/65 100/1/61 144/1/63
f 114/1/68 86/1/66 132/1/67
f 119/1/62 100/1/61 122/1/65
f 115/1/52 114/1/68 134/1/68
f 118/1/69 142/1/69 101/1/62
f 116/1/53 115/1/52 135/1/52
f 117/1/70 142/1/69 118/1/69
f 90/1/71 116/1/53 136/1/53
f 91/1/72 141/1/70 117/1/70
f 101/1/62 119/1/62 118/1/69
f 141/1/70 142/1/69 117/1/70
f 138/1/73 89/1/73 90/1/71
f 136/1/53 137/1/71 90/1/71
f 134/1/68 135/1/52 115/1/52
f 133/1/10 132/1/67 113/1/64
f 89/1/73 140/1/72 91/1/72
f 141/1/70 91/1/72 140/1/72
f 137/1/71 138/1/73 90/1/71
f 132/1/67 134/1/68 114/1/68
f 89/1/73 138/1/73 140/1/72
usemtl UkMaterial.001
s off
f 1/3/1 2/3/1 3/3/1
f 4/5/1 5/5/1 6/5/1
f 7/5/2 8/5/2 9/5/2
f 10/3/1 11/3/1 12/3/1
f 13/3/1 11/3/1 10/3/1
f 14/3/1 11/3/1 13/3/1
f 15/3/1 11/3/1 14/3/1
f 15/3/1 16/3/1 11/3/1
f 17/3/1 16/3/1 15/3/1
f 17/3/1 18/3/1 16/3/1
f 19/3/1 18/3/1 17/3/1
f 20/3/1 18/3/1 19/3/1
f 20/3/1 21/3/1 18/3/1
f 22/3/1 21/3/1 20/3/1
f 22/3/1 23/3/1 21/3/1
f 24/3/1 23/3/1 22/3/1
f 25/3/1 23/3/1 24/3/1
f 25/3/1 26/3/1 23/3/1
f 27/3/1 26/3/1 25/3/1
f 28/3/1 26/3/1 27/3/1
f 28/3/1 29/3/1 26/3/1
f 30/3/1 29/3/1 28/3/1
f 31/3/1 29/3/1 30/3/1
f 32/3/1 29/3/1 31/3/1
f 32/3/1 33/3/1 29/3/1
f 34/3/1 33/3/1 32/3/1
f 34/3/1 35/3/1 33/3/1
f 34/3/1 36/3/1 35/3/1
f 3/3/1 37/3/1 38/3/1
f 3/3/1 39/3/1 37/3/1
f 3/3/1 2/3/1 39/3/1
f 1/3/1 3/3/1 40/3/1
f 41/5/1 5/5/1 4/5/1
f 41/5/1 42/5/1 5/5/1
f 43/3/2 44/3/2 45/3/2
f 43/3/2 46/3/2 44/3/2
f 43/3/2 47/3/2 46/3/2
f 48/3/2 47/3/2 43/3/2
f 48/3/2 49/3/2 47/3/2
f 50/3/2 49/3/2 48/3/2
f 50/3/2 51/3/2 49/3/2
f 52/3/2 51/3/2 50/3/2
f 52/3/2 53/3/2 51/3/2
f 52/3/2 54/3/2 53/3/2
f 55/3/2 54/3/2 52/3/2
f 55/3/2 56/3/2 54/3/2
f 57/3/2 58/3/2 59/3/2
f 60/3/2 58/3/2 57/3/2
f 61/3/2 62/3/2 63/3/2
f 64/3/2 62/3/2 61/3/2
f 9/5/2 65/5/2 66/5/2
f 9/5/2 67/5/2 65/5/2
f 9/5/2 68/5/2 67/5/2
f 9/5/2 8/5/2 68/5/2
f 69/3/2 70/3/2 59/3/2
f 71/3/2 56/3/2 59/3/2
f 55/3/2 72/3/2 56/3/2
f 73/3/2 74/3/2 56/3/2
f 75/3/2 59/3/2 56/3/2
f 58/3/2 76/3/2 59/3/2
f 77/3/2 69/3/2 59/3/2
f 70/3/2 78/3/2 59/3/2
f 79/3/2 80/3/2 59/3/2
f 56/3/2 72/3/2 73/3/2
f 74/3/2 75/3/2 56/3/2
f 76/3/2 77/3/2 59/3/2
f 78/3/2 79/3/2 59/3/2
f 71/3/2 59/3/2 80/3/2
s 1
f 34/3/74 76/3/75 58/3/76
f 18/3/77 21/3/78 52/3/77
f 29/3/79 74/3/80 73/3/81
f 56/3/82 71/3/83 22/3/82
f 35/3/84 60/3/85 57/3/86
f 41/5/57 68/5/87 8/5/18
f 4/5/88 67/5/89 68/5/87
f 6/5/58 65/5/21 67/5/89
f 40/3/90 81/3/26 62/3/24
f 38/3/91 63/3/92 62/3/24
f 37/3/93 61/3/94 63/3/92
f 39/3/95 64/3/96 61/3/94
f 2/3/27 82/3/29 64/3/96
f 42/5/59 7/5/36 9/5/33
f 77/3/97 31/3/98 69/3/98
f 46/3/99 13/3/99 44/3/100
f 41/5/57 4/5/88 68/5/87
f 4/5/88 6/5/58 67/5/89
f 1/3/22 40/3/90 62/3/24
f 40/3/90 3/3/25 81/3/26
f 3/3/25 38/3/91 62/3/24
f 38/3/91 37/3/93 63/3/92
f 37/3/93 39/3/95 61/3/94
f 39/3/95 2/3/27 64/3/96
f 5/5/32 42/5/59 9/5/33
f 73/3/81 72/3/101 23/3/101
f 55/3/78 52/3/77 21/3/78
f 50/3/102 18/3/77 52/3/77
f 43/3/103 11/3/104 48/3/105
f 23/3/101 26/3/106 73/3/81
f 11/3/104 16/3/107 48/3/105
f 26/3/106 29/3/79 73/3/81
f 16/3/107 50/3/102 48/3/105
f 21/3/78 23/3/101 72/3/101
f 72/3/101 55/3/78 21/3/78
f 16/3/107 18/3/77 50/3/102
f 80/3/108 25/3/108 24/3/83
f 24/3/83 71/3/83 80/3/108
f 20/3/109 19/3/110 53/3/111
f 17/3/112 51/3/112 53/3/111
f 53/3/111 54/3/109 20/3/109
f 56/3/82 22/3/82 20/3/109
f 24/3/83 22/3/82 71/3/83
f 19/3/110 17/3/112 53/3/111
f 54/3/109 56/3/82 20/3/109
f 59/3/113 33/3/114 35/3/84
f 74/3/80 29/3/79 75/3/115
f 36/3/116 34/3/74 58/3/76
f 29/3/79 33/3/114 75/3/115
f 35/3/84 36/3/116 60/3/85
f 58/3/76 60/3/85 36/3/116
f 57/3/86 59/3/113 35/3/84
f 33/3/114 59/3/113 75/3/115
f 27/3/117 25/3/108 80/3/108
f 80/3/108 79/3/117 27/3/117
f 78/3/118 70/3/119 30/3/119
f 69/3/98 31/3/98 30/3/119
f 76/3/75 34/3/74 32/3/120
f 28/3/118 27/3/117 79/3/117
f 76/3/75 32/3/120 77/3/97
f 30/3/119 28/3/118 78/3/118
f 32/3/120 31/3/98 77/3/97
f 70/3/119 69/3/98 30/3/119
f 28/3/118 79/3/117 78/3/118
f 45/3/121 44/3/100 10/3/100
f 46/3/99 47/3/122 13/3/99
f 49/3/123 51/3/112 17/3/112
f 17/3/112 15/3/123 49/3/123
f 13/3/99 10/3/100 44/3/100
f 49/3/123 15/3/123 14/3/122
f 12/3/124 11/3/104 45/3/121
f 49/3/123 14/3/122 47/3/122
f 10/3/100 12/3/124 45/3/121
f 43/3/103 45/3/121 11/3/104
f 47/3/122 14/3/122 13/3/99
